<svg width="26" height="26" viewBox="0 0 26 26" fill="none" xmlns="http://www.w3.org/2000/svg">
<path d="M19.5 20.4316H18.6767C17.81 20.4316 16.9867 20.7675 16.38 21.3741L14.5275 23.205C13.6825 24.0392 12.3067 24.0392 11.4617 23.205L9.60916 21.3741C9.00249 20.7675 8.16833 20.4316 7.3125 20.4316H6.5C4.70167 20.4316 3.25 18.9908 3.25 17.2142V5.39496C3.25 3.61829 4.70167 2.17749 6.5 2.17749H19.5C21.2983 2.17749 22.75 3.61829 22.75 5.39496V17.2142C22.75 18.98 21.2983 20.4316 19.5 20.4316Z" stroke="#111111" stroke-width="2" stroke-miterlimit="10" stroke-linecap="round" stroke-linejoin="round"/>
<path d="M7.5835 9.92319C7.5835 8.91569 8.40683 8.09229 9.41433 8.09229C10.4218 8.09229 11.2452 8.91569 11.2452 9.92319C11.2452 11.9599 8.35266 12.1765 7.71349 14.1157C7.58349 14.5165 7.91933 14.9173 8.34183 14.9173H11.2452" stroke="#111111" stroke-width="2" stroke-linecap="round" stroke-linejoin="round"/>
<path d="M17.3769 14.9066V8.72085C17.3769 8.43919 17.1927 8.18996 16.9219 8.11412C16.6511 8.03829 16.3586 8.14662 16.2069 8.38496C15.4269 9.64162 14.5819 11.0716 13.8452 12.3283C13.7261 12.5341 13.7261 12.805 13.8452 13.0108C13.9644 13.2166 14.1919 13.3466 14.4411 13.3466H18.4169" stroke="#111111" stroke-width="2" stroke-linecap="round" stroke-linejoin="round"/>
</svg>
