<svg width="76" height="14" viewBox="0 0 76 14" fill="none" xmlns="http://www.w3.org/2000/svg">
<path fill-rule="evenodd" clip-rule="evenodd" d="M44.0967 2.9268V1.26195C44.0967 1.00998 44.293 0.840944 44.5285 0.840944H52.1732C52.4186 0.840944 52.6149 1.01313 52.6149 1.26195V2.68757C52.6116 2.9268 52.4055 3.23937 52.0392 3.73372L48.0778 9.24818C49.5498 9.21316 51.1036 9.42681 52.4382 10.1604C52.7392 10.3262 52.8209 10.5687 52.8439 10.8078V12.5843C52.8439 12.8267 52.569 13.1105 52.2812 12.9639C49.9292 11.7615 46.8053 11.6307 44.2047 12.9766C43.9397 13.117 43.6617 12.8363 43.6617 12.5939V10.9067C43.6617 10.6356 43.6649 10.1731 43.9429 9.76173L48.5324 3.34466H44.5383C44.293 3.34466 44.0967 3.17562 44.0967 2.9268ZM16.2099 13.3147H13.8841C13.6616 13.2988 13.485 13.1361 13.4686 12.9288V1.29068C13.4686 1.05782 13.6682 0.872817 13.9168 0.872817H16.0856C16.3113 0.882342 16.4912 1.05145 16.5076 1.26188V2.78334H16.5501C17.116 1.31302 18.1791 0.627362 19.6119 0.627362C21.0675 0.627362 21.977 1.31302 22.6312 2.78334C23.1939 1.31302 24.4729 0.627362 25.8436 0.627362C26.8183 0.627362 27.8848 1.01965 28.5357 1.89992C29.2717 2.87903 29.1212 4.30149 29.1212 5.54855L29.1179 12.8937C29.1179 13.1266 28.9184 13.3147 28.6698 13.3147H26.3473C26.1151 13.2988 25.9286 13.1171 25.9286 12.8937V6.72542C25.9286 6.23421 25.9744 5.00943 25.8632 4.54387C25.6898 3.76244 25.1697 3.54234 24.4958 3.54234C23.9331 3.54234 23.3443 3.90913 23.1055 4.49603C22.8668 5.08292 22.8897 6.06518 22.8897 6.72542V12.8937C22.8897 13.1265 22.6901 13.3147 22.4415 13.3147H20.1189C19.8834 13.2988 19.7002 13.117 19.7002 12.8937L19.697 6.72542C19.697 5.42729 19.9161 3.51692 18.2642 3.51692C16.5927 3.51692 16.658 5.37944 16.658 6.72542V12.8937C16.658 13.1265 16.4585 13.3147 16.2099 13.3147ZM59.1965 0.627289C62.6476 0.627289 64.5155 3.51684 64.5155 7.19105C64.5155 10.7408 62.4513 13.5571 59.1964 13.5571C55.8075 13.5571 53.9626 10.6675 53.9626 7.06663C53.9626 3.4435 55.8304 0.627289 59.1965 0.627289ZM59.2161 3.00337C57.502 3.00337 57.3941 5.2806 57.3941 6.69984C57.3941 8.12238 57.3712 11.1586 59.1965 11.1586C60.9989 11.1586 61.0839 8.70921 61.0839 7.21655C61.0839 6.23421 61.0414 5.0605 60.7372 4.12924C60.4755 3.31909 59.9554 3.00337 59.2162 3.00337M68.9904 13.3147H66.6744C66.4422 13.2988 66.2557 13.117 66.2557 12.8937L66.2525 1.25236C66.272 1.0387 66.4651 0.872817 66.7006 0.872817H68.8563C69.0591 0.882342 69.2259 1.01643 69.2717 1.19814V2.97787H69.3142C69.9653 1.38637 70.8779 0.627289 72.484 0.627289C73.5275 0.627289 74.5449 0.994006 75.1992 1.99869C75.8076 2.92995 75.8076 4.49603 75.8076 5.62189V12.9479C75.7814 13.152 75.5884 13.3147 75.3594 13.3147H73.027C72.8144 13.2988 72.6378 13.1456 72.6149 12.9479V6.6265C72.6149 5.35395 72.7654 3.49127 71.1592 3.49127C70.5934 3.49127 70.0732 3.86129 69.8148 4.42261C69.4876 5.13392 69.4451 5.84192 69.4451 6.62657V12.8937C69.4418 13.1265 69.239 13.3147 68.9904 13.3147ZM38.0025 7.75559C38.0025 8.63901 38.0254 9.37582 37.5674 10.1603C37.1978 10.7983 36.609 11.1905 35.958 11.1905C35.065 11.1905 34.5416 10.5272 34.5416 9.548C34.5416 7.61521 36.3179 7.26439 38.0025 7.26439V7.75559ZM40.3479 13.2828C40.1942 13.4167 39.9718 13.4263 39.7984 13.337C39.0264 12.7119 38.8857 12.4217 38.4638 11.8252C37.188 13.0946 36.2819 13.4742 34.6299 13.4742C32.6705 13.4742 31.1494 12.2972 31.1494 9.94036C31.1494 8.10004 32.17 6.8466 33.6289 6.23421C34.8916 5.69201 36.6548 5.59632 38.0026 5.44641V5.15304C38.0026 4.61399 38.045 3.9761 37.7179 3.51047C37.4366 3.09268 36.8935 2.92042 36.4127 2.92042C35.5262 2.92042 34.7379 3.36371 34.5449 4.2823C34.5056 4.48643 34.3518 4.68733 34.1392 4.69693L31.8854 4.46093C31.6957 4.41946 31.483 4.26955 31.5386 3.9857C32.0555 1.3194 34.5285 0.515625 36.7399 0.515625C37.8717 0.515625 39.3503 0.809072 40.2434 1.64472C41.3751 2.6749 41.2672 4.04944 41.2672 5.54533V9.07915C41.2672 10.1413 41.7187 10.6068 42.1439 11.181C42.2912 11.3851 42.3238 11.6307 42.1341 11.7838C41.6598 12.1697 40.8158 12.8873 40.3513 13.2892L40.348 13.2828M7.51182 7.75559C7.51182 8.63901 7.53474 9.37582 7.0767 10.1603C6.70712 10.7983 6.12156 11.1905 5.46732 11.1905C4.57432 11.1905 4.05414 10.5272 4.05414 9.548C4.05414 7.61521 5.83044 7.26439 7.51182 7.26439V7.75559ZM9.85721 13.2828C9.70353 13.4167 9.48109 13.4263 9.30772 13.337C8.53572 12.7119 8.39827 12.4217 7.97308 11.8252C6.69728 13.0946 5.79452 13.4742 4.13921 13.4742C2.18309 13.4742 0.658691 12.2972 0.658691 9.94036C0.658691 8.10004 1.68259 6.8466 3.13823 6.23421C4.40095 5.69201 6.1641 5.59632 7.51182 5.44641V5.15304C7.51182 4.61399 7.55435 3.9761 7.23046 3.51047C6.94587 3.09268 6.40292 2.92042 5.92527 2.92042C5.03882 2.92042 4.2472 3.36371 4.05414 4.2823C4.01491 4.48643 3.86116 4.68733 3.6518 4.69693L1.3947 4.46093C1.20495 4.41946 0.995659 4.26955 1.04796 3.9857C1.56807 1.3194 4.03784 0.515625 6.24917 0.515625C7.38091 0.515625 8.85954 0.809072 9.75261 1.64472C10.8843 2.6749 10.7764 4.04944 10.7764 5.54533V9.07915C10.7764 10.1413 11.2279 10.6068 11.6531 11.181C11.8036 11.3851 11.8363 11.6307 11.6466 11.7838C11.1722 12.1697 10.3283 12.8873 9.86383 13.2892L9.85729 13.2828" fill="white"/>
</svg>
