<svg xmlns="http://www.w3.org/2000/svg" height="800" width="800" viewBox="0 0 353.13 353.13" xmlns:v="https://vecta.io/nano"><path d="M207.95 218.28c43.802 0 77.304-35.54 77.256-79.342v-.669C285.205 56.796 244.459 0 176.565 0S67.925 56.796 67.925 138.269v.669c-.048 43.802 33.454 79.342 77.256 79.342h62.769z" fill="#e1a98c"/><path d="M285.205 138.269C285.205 56.796 244.459 0 176.565 0v218.28h31.385c43.802 0 77.304-35.54 77.256-79.342l-.001-.669z" fill="#d2987b"/><path d="M204.894 175.281H178.01h-1.256-.379-1.256-26.884c0 74.552-36.43 67.808-36.43 67.808 0 47.368 51.162 62.392 63.313 66.806v1.537s.533-.11 1.446-.359a26.13 26.13 0 0 0 1.446.359v-1.537c12.151-4.414 63.313-19.439 63.313-66.806.001 0-36.429 6.744-36.429-67.808z" fill="#f3d8b6"/><path d="M204.894 175.281H178.01h-1.256-.189v135.792l1.446.359v-1.537c12.151-4.414 63.313-19.439 63.313-66.806 0 0-36.43 6.744-36.43-67.808z" fill="#eec8a2"/><path d="M240.493 115.656l-.286-.021-.469-.034-.315-.023-.565-.043-.394-.031-.662-.052-.405-.032-.822-.067-.395-.033-1.065-.091-.27-.023-1.355-.121-.14-.012-3.409-.323-.11-.011-1.724-.174-.372-.039-1.56-.163-.525-.057-1.538-.168-.562-.063-1.577-.179-.644-.075-1.604-.189-.665-.08-1.707-.21-.636-.079-1.868-.239-.544-.07-2.13-.284-.361-.049-8.013-1.16-.217-.034-2.504-.393-.564-.091-2.194-.359-.761-.128-2.047-.349-.857-.15-1.995-.355-.906-.165-2-.371-.9-.17-2.053-.398-.867-.171-2.158-.437-.767-.157-2.368-.501-.577-.123c-27.403-5.937-55.698-15.67-65.718-31.299-5.057 33.582.023 77.854 6.563 89.929 9.042 16.694 29.221 38.956 55.657 38.956s46.607-22.262 55.652-38.956c4.098-7.566 7.624-27.774 8.442-50.072l-.169-.011z" fill="#f3dbc4"/><path d="M240.493 115.656l-.286-.021-.469-.034-.315-.023-.565-.043-.394-.031-.662-.052-.405-.032-.822-.067-.395-.033-1.065-.091-.27-.023-1.355-.121-.14-.012-3.409-.323-.11-.011-1.724-.174-.372-.039-1.56-.163-.525-.057-1.538-.168-.562-.063-1.577-.179-.644-.075-1.604-.189-.665-.08-1.707-.21-.636-.079-1.868-.239-.544-.07-2.13-.284-.361-.049-8.013-1.16-.217-.034-2.504-.393-.564-.091-2.194-.359-.761-.128-2.047-.349-.857-.15-1.995-.355-.906-.165-2-.371-.9-.17-2.053-.398-.867-.171-2.158-.437-.767-.157-2.368-.501-.577-.123-3.5-.781v98.368c26.433 0 46.609-22.262 55.654-38.956 4.098-7.566 7.624-27.774 8.442-50.072l-.169-.012z" fill="#edceae"/><path d="M293.545 312.44v40.69H59.585v-40.69c0-38.32 22.79-70.45 57.36-79.08 5.98-1.5 12.31-2.29 18.93-2.29 0 0 1.4 55.77 23.81 74.97 4.66 3.99 10.23 6.4 16.88 6.4 44.25 0 40.69-81.37 40.69-81.37 44.94 0 76.29 36.43 76.29 81.37z" fill="#682234"/><path d="M217.255 231.07s3.56 81.37-40.69 81.37v40.69h116.98v-40.69c0-44.94-31.35-81.37-76.29-81.37z" fill="#581a2b"/><path d="M211.785 266.133l-35.22 20.334h0l-35.22-20.334c-6.951-4.013-15.639 1.003-15.639 9.03v51.974c0 8.026 8.689 13.042 15.639 9.029l35.22-20.334h0l35.22 20.334c6.951 4.013 15.639-1.003 15.639-9.029v-51.974c.001-8.026-8.688-13.043-15.639-9.03z" fill="#fff"/><path d="M211.785 266.133l-35.22 20.334v29.364l35.22 20.334c6.951 4.013 15.639-1.003 15.639-9.029v-51.974c.001-8.025-8.688-13.042-15.639-9.029z" fill="#dedde0"/></svg>