<svg width="76" height="15" viewBox="0 0 76 15" fill="none" xmlns="http://www.w3.org/2000/svg">
<path d="M5.03412 14.3863H2.20243V7.50378H0.273438V5.26296H2.20236V3.66845C2.20236 1.77896 3.05552 0.423828 5.87954 0.423828C6.47683 0.423828 7.41453 0.541207 7.41453 0.541207V2.62193H6.42963C5.42609 2.62193 5.03427 2.91956 5.03427 3.74238V5.26296H7.37696L7.16835 7.50378H5.03419L5.03412 14.3863ZM11.5315 5.08388C11.4902 5.08388 11.4478 5.08535 11.4058 5.08637C8.78006 5.08637 7.57873 7.01206 7.57873 9.74562C7.57873 13.1892 9.13702 14.5674 11.4263 14.5674C12.7361 14.5674 13.5966 14.0299 14.1196 13.0268V14.3873H16.813V5.26391H14.1196V6.66696C13.6925 5.76427 12.808 5.09458 11.5315 5.08388ZM12.2163 7.23971C13.3191 7.23971 13.981 7.9897 13.981 9.26541L13.9836 10.5684C13.9836 11.4282 13.4369 12.4341 12.2163 12.4341C10.3399 12.4341 10.39 10.4586 10.39 9.80065C10.39 7.58738 11.3898 7.23971 12.2163 7.23971ZM17.9007 9.82607C17.9007 8.71742 17.8462 5.08982 22.6936 5.08982C24.6395 5.08982 25.452 5.69305 25.452 5.69305L24.7989 7.6679C24.7989 7.6679 23.9875 7.23224 22.9301 7.23224C21.5759 7.23224 20.7118 7.99769 20.7118 9.34447L20.7133 10.3102C20.7133 11.6043 21.547 12.4681 22.9329 12.4681C23.8962 12.4681 24.784 12.0284 24.784 12.0284L25.4354 13.962C25.4354 13.962 24.6925 14.569 22.7073 14.569C18.0918 14.569 17.9007 11.3143 17.9007 9.82607H17.9007ZM41.244 5.08637C43.8698 5.08637 45.09 7.01206 45.09 9.74562C45.09 13.1892 43.5317 14.5674 41.2424 14.5674C39.9327 14.5674 38.9644 14.0299 38.4414 13.0268V14.3873L35.782 14.3863V0.701229L38.6056 0.461123V6.54335C39.0131 5.47925 40.3524 5.08637 41.2441 5.08637H41.244ZM40.4524 7.23971C39.3496 7.23971 38.6056 7.9897 38.6056 9.26541L38.603 10.5684C38.6013 11.4282 39.1182 12.4341 40.4524 12.4341C42.3288 12.4341 42.2787 10.4586 42.2787 9.80065C42.2787 7.58738 41.279 7.23971 40.4524 7.23971ZM30.3512 5.09392C27.3731 5.09392 25.8008 6.67707 25.8008 9.4905V10.0132C25.8008 13.6648 28.0088 14.6049 30.6411 14.6049C33.1997 14.6049 34.3578 13.9071 34.3578 13.9071L33.8294 12.049C33.8294 12.049 32.4671 12.6141 30.9796 12.6141C29.4376 12.6141 28.7744 12.2309 28.6044 10.7861H34.5836V9.29538C34.5836 6.24353 32.819 5.09385 30.3512 5.09385L30.3512 5.09392ZM30.423 6.95454C31.4539 6.95454 32.1219 7.57089 32.0852 9.00032H28.6096C28.6699 7.49586 29.3902 6.95462 30.423 6.95462V6.95454ZM50.7203 5.08139C47.6619 5.08139 46.0519 6.76177 46.0519 9.7731C46.0519 13.9048 48.8273 14.5699 50.7254 14.5699C53.5041 14.5699 55.3527 13.1113 55.3527 9.81061C55.3527 6.3752 53.2741 5.08139 50.7203 5.08139ZM50.6818 7.24718C52.0266 7.24718 52.5595 8.22849 52.5595 9.34549V10.3058C52.5595 11.659 51.8138 12.4417 50.6767 12.4417C49.6132 12.4417 48.8657 11.7096 48.8657 10.3058V9.34549C48.8657 7.84844 49.7551 7.24718 50.6818 7.24718ZM60.9779 5.08139C57.9196 5.08139 56.3095 6.76177 56.3095 9.7731C56.3095 13.9048 59.0849 14.5699 60.983 14.5699C63.7617 14.5699 65.6104 13.1113 65.6104 9.81061C65.6104 6.3752 63.5317 5.08139 60.9779 5.08139ZM60.9395 7.24718C62.2843 7.24718 62.8171 8.22849 62.8171 9.34549V10.3058C62.8171 11.659 62.0714 12.4417 60.9344 12.4417C59.8708 12.4417 59.1234 11.7096 59.1234 10.3058V9.34549C59.1234 7.84844 60.0128 7.24718 60.9395 7.24718ZM66.6775 14.3863V0.701229L69.5093 0.461196V9.63381L72.3188 5.26303H75.3094L72.3786 9.78988L75.4223 14.3863H72.4232L69.5093 9.92316V14.3863H66.6775Z" fill="white"/>
</svg>
