<svg width="76" height="25" viewBox="0 0 76 25" fill="none" xmlns="http://www.w3.org/2000/svg">
<path d="M33.0157 13.2321C33.0157 16.7022 30.2384 19.2592 26.8301 19.2592C23.4218 19.2592 20.6445 16.7022 20.6445 13.2321C20.6445 9.73763 23.4218 7.20508 26.8301 7.20508C30.2384 7.20508 33.0157 9.73763 33.0157 13.2321ZM30.3079 13.2321C30.3079 11.0637 28.6983 9.58003 26.8301 9.58003C24.9619 9.58003 23.3523 11.0637 23.3523 13.2321C23.3523 15.3788 24.9619 16.8842 26.8301 16.8842C28.6983 16.8842 30.3079 15.3761 30.3079 13.2321Z" fill="white"/>
<path d="M46.3595 13.2321C46.3595 16.7022 43.5822 19.2592 40.1739 19.2592C36.7655 19.2592 33.9883 16.7022 33.9883 13.2321C33.9883 9.74035 36.7655 7.20508 40.1739 7.20508C43.5822 7.20508 46.3595 9.73763 46.3595 13.2321ZM43.6517 13.2321C43.6517 11.0637 42.0421 9.58003 40.1739 9.58003C38.3057 9.58003 36.696 11.0637 36.696 13.2321C36.696 15.3788 38.3057 16.8842 40.1739 16.8842C42.0421 16.8842 43.6517 15.3761 43.6517 13.2321Z" fill="white"/>
<path d="M59.1489 7.5692V18.3896C59.1489 22.8406 56.4633 24.6585 53.2885 24.6585C50.3 24.6585 48.5013 22.7047 47.823 21.107L50.1804 20.1477C50.6002 21.1287 51.6288 22.2863 53.2858 22.2863C55.318 22.2863 56.5773 21.0608 56.5773 18.7537V17.8869H56.4828C55.8767 18.6179 54.7091 19.2564 53.2357 19.2564C50.1526 19.2564 47.3281 16.6315 47.3281 13.2539C47.3281 9.85176 50.1526 7.20508 53.2357 7.20508C54.7064 7.20508 55.874 7.84365 56.4828 8.55287H56.5773V7.57192H59.1489V7.5692ZM56.7691 13.2539C56.7691 11.1316 55.3207 9.58003 53.4776 9.58003C51.6094 9.58003 50.0442 11.1316 50.0442 13.2539C50.0442 15.3544 51.6094 16.8842 53.4776 16.8842C55.3207 16.8842 56.7691 15.3544 56.7691 13.2539Z" fill="white"/>
<path d="M63.3871 1.22656V18.8892H60.7461V1.22656H63.3871Z" fill="white"/>
<path d="M73.6801 15.2154L75.7818 16.585C75.1034 17.5659 73.4688 19.2561 70.6443 19.2561C67.1414 19.2561 64.5254 16.6094 64.5254 13.2291C64.5254 9.64491 67.1636 7.20203 70.3412 7.20203C73.5411 7.20203 75.1062 9.6911 75.6178 11.0362L75.8985 11.721L67.6557 15.0578C68.2868 16.267 69.2681 16.8839 70.6443 16.8839C72.0232 16.8839 72.9795 16.2209 73.6801 15.2154ZM67.2109 13.047L72.7209 10.8106C72.4179 10.0579 71.5061 9.5335 70.433 9.5335C69.0569 9.5335 67.1414 10.721 67.2109 13.047Z" fill="white"/>
<path d="M10.6482 11.6638V9.10681H19.4637C19.5499 9.55245 19.5943 10.0796 19.5943 10.6503C19.5943 12.5687 19.0578 14.9409 17.3286 16.6311C15.6467 18.343 13.4977 19.256 10.651 19.256C5.37444 19.256 0.9375 15.0551 0.9375 9.89755C0.9375 4.74006 5.37444 0.539062 10.651 0.539062C13.57 0.539062 15.6495 1.6586 17.2119 3.11781L15.3659 4.92212C14.2456 3.89497 12.7276 3.09607 10.6482 3.09607C6.79504 3.09607 3.78148 6.13133 3.78148 9.89755C3.78148 13.6638 6.79504 16.699 10.6482 16.699C13.1474 16.699 14.5708 15.7181 15.4827 14.8268C16.2222 14.104 16.7087 13.0714 16.9005 11.6611L10.6482 11.6638Z" fill="white"/>
</svg>
