<svg width="20" height="20" viewBox="0 0 20 20" fill="none" xmlns="http://www.w3.org/2000/svg">
<path d="M17.4998 11.6666V12.5C17.4998 14.0916 16.6082 15.475 15.2915 16.175L15.8332 18.3333H14.1665L13.7498 16.6666H6.24984L5.83317 18.3333H4.1665L4.70817 16.175C4.04083 15.821 3.48259 15.2917 3.0935 14.6442C2.7044 13.9967 2.49916 13.2554 2.49984 12.5V11.6666H1.6665V9.99996H16.6665V4.16663C16.6665 3.94561 16.5787 3.73365 16.4224 3.57737C16.2661 3.42109 16.0542 3.33329 15.8332 3.33329C15.4165 3.33329 15.0998 3.61663 14.9998 3.99163C15.5248 4.44163 15.8332 5.10829 15.8332 5.83329H10.8332C10.8332 5.17025 11.0966 4.53437 11.5654 4.06553C12.0342 3.59668 12.6701 3.33329 13.3332 3.33329H13.4748C13.8165 2.36663 14.7415 1.66663 15.8332 1.66663C16.4962 1.66663 17.1321 1.93002 17.6009 2.39886C18.0698 2.8677 18.3332 3.50358 18.3332 4.16663V11.6666H17.4998ZM15.8332 11.6666H4.1665V12.5C4.1665 13.163 4.4299 13.7989 4.89874 14.2677C5.36758 14.7366 6.00346 15 6.6665 15H13.3332C13.9962 15 14.6321 14.7366 15.1009 14.2677C15.5698 13.7989 15.8332 13.163 15.8332 12.5V11.6666Z" fill="#A9A9A9"/>
</svg>
