<svg width="20" height="20" viewBox="0 0 20 20" fill="none" xmlns="http://www.w3.org/2000/svg">
<path d="M1.6665 15.8333V10.8333C1.6665 10.4583 1.74289 10.118 1.89567 9.81246C2.04845 9.5069 2.24984 9.23607 2.49984 8.99996V6.66663C2.49984 5.97218 2.74289 5.3819 3.229 4.89579C3.71512 4.40968 4.30539 4.16663 4.99984 4.16663H8.33317C8.65262 4.16663 8.95123 4.22579 9.229 4.34413C9.50678 4.46246 9.76373 4.62552 9.99984 4.83329C10.2359 4.62496 10.4929 4.4619 10.7707 4.34413C11.0484 4.22635 11.3471 4.16718 11.6665 4.16663H14.9998C15.6943 4.16663 16.2846 4.40968 16.7707 4.89579C17.2568 5.3819 17.4998 5.97218 17.4998 6.66663V8.99996C17.7498 9.23607 17.9512 9.5069 18.104 9.81246C18.2568 10.118 18.3332 10.4583 18.3332 10.8333V15.8333H16.6665V14.1666H3.33317V15.8333H1.6665ZM10.8332 8.33329H15.8332V6.66663C15.8332 6.43052 15.7532 6.23274 15.5932 6.07329C15.4332 5.91385 15.2354 5.83385 14.9998 5.83329H11.6665C11.4304 5.83329 11.2326 5.91329 11.0732 6.07329C10.9137 6.23329 10.8337 6.43107 10.8332 6.66663V8.33329ZM4.1665 8.33329H9.1665V6.66663C9.1665 6.43052 9.0865 6.23274 8.9265 6.07329C8.7665 5.91385 8.56873 5.83385 8.33317 5.83329H4.99984C4.76373 5.83329 4.56595 5.91329 4.4065 6.07329C4.24706 6.23329 4.16706 6.43107 4.1665 6.66663V8.33329ZM3.33317 12.5H16.6665V10.8333C16.6665 10.5972 16.5865 10.3994 16.4265 10.24C16.2665 10.0805 16.0687 10.0005 15.8332 9.99996H4.1665C3.93039 9.99996 3.73261 10.08 3.57317 10.24C3.41373 10.4 3.33373 10.5977 3.33317 10.8333V12.5Z" fill="#A9A9A9"/>
</svg>
