<svg width="77" height="21" viewBox="0 0 77 21" fill="none" xmlns="http://www.w3.org/2000/svg">
<path d="M11.298 19.5068C10.1676 19.7003 9.01722 19.7584 7.82724 19.9129L4.19764 9.54804V20.3577C3.06718 20.4737 2.03586 20.6284 0.964844 20.7831V0.981445H3.9796L8.10487 12.2168V0.981445H11.298V19.5068ZM17.5456 8.23304C18.7753 8.23304 20.6595 8.17501 21.79 8.17501V11.269C20.3817 11.269 18.7356 11.269 17.5456 11.327V15.9294C19.41 15.8134 21.2743 15.6586 23.1584 15.6006V18.5784L14.3722 19.2553V0.981445H23.1584V4.07546H17.5456V8.23304ZM34.9593 4.07554H31.667V18.308C30.596 18.308 29.5249 18.308 28.4938 18.3465V4.07554H25.2015V0.981445H34.9594L34.9593 4.07554ZM40.1159 8.02039H44.4595V11.1143H40.1159V18.134H37.0019V0.981445H45.8677V4.07546H40.1159V8.02039ZM51.0243 15.4266C52.8292 15.4652 54.6538 15.6008 56.4191 15.6973V18.7527C53.5829 18.5785 50.7467 18.4047 47.8511 18.3465V0.981445H51.0243V15.4266ZM59.0965 18.9654C60.108 19.0235 61.179 19.0815 62.2104 19.1974V0.981445H59.0965V18.9654ZM76.1137 0.981445L72.0874 10.3989L76.1137 20.7831C74.9236 20.6284 73.7336 20.4157 72.5435 20.2223L70.2628 14.4985L67.9425 19.7584C66.7919 19.5648 65.6813 19.5068 64.5312 19.3521L68.6168 10.2827L64.9277 0.981445H68.3389L70.4214 6.18327L72.6428 0.981445H76.1137Z" fill="white"/>
</svg>
