<svg width="76" height="76" viewBox="0 0 76 76" fill="none" xmlns="http://www.w3.org/2000/svg">
<circle cx="38" cy="38" r="38" fill="#F9F9F9"/>
<path d="M38.0002 49.6666C44.4435 49.6666 49.6668 44.4432 49.6668 37.9999C49.6668 31.5566 44.4435 26.3333 38.0002 26.3333C31.5568 26.3333 26.3335 31.5566 26.3335 37.9999C26.3335 44.4432 31.5568 49.6666 38.0002 49.6666Z" stroke="#B7E08A" stroke-width="2" stroke-linecap="round" stroke-linejoin="round"/>
<path d="M33.3335 27.5H34.5002C32.2252 34.3133 32.2252 41.6867 34.5002 48.5H33.3335" stroke="#B7E08A" stroke-width="2" stroke-linecap="round" stroke-linejoin="round"/>
<path d="M41.5 27.5C43.775 34.3133 43.775 41.6867 41.5 48.5" stroke="#B7E08A" stroke-width="2" stroke-linecap="round" stroke-linejoin="round"/>
<path d="M27.5 42.6667V41.5C34.3133 43.775 41.6867 43.775 48.5 41.5V42.6667" stroke="#B7E08A" stroke-width="2" stroke-linecap="round" stroke-linejoin="round"/>
<path d="M27.5 34.5C34.3133 32.225 41.6867 32.225 48.5 34.5" stroke="#B7E08A" stroke-width="1.5" stroke-linecap="round" stroke-linejoin="round"/>
</svg>
