<svg width="76" height="17" viewBox="0 0 76 17" fill="none" xmlns="http://www.w3.org/2000/svg">
<path d="M23.7235 3.00401C23.4473 2.004 22.6386 1.21553 21.613 0.946295C19.7392 0.446289 12.244 0.446289 12.244 0.446289C12.244 0.446289 4.74886 0.446289 2.87507 0.927064C1.86914 1.1963 1.04072 2.004 0.764587 3.00401C0.271484 4.83096 0.271484 8.61947 0.271484 8.61947C0.271484 8.61947 0.271484 12.4272 0.764587 14.2349C1.04072 15.2349 1.84941 16.0234 2.87507 16.2926C4.76858 16.7926 12.244 16.7926 12.244 16.7926C12.244 16.7926 19.7392 16.7926 21.613 16.3119C22.6386 16.0426 23.4473 15.2542 23.7235 14.2542C24.2166 12.4272 24.2166 8.6387 24.2166 8.6387C24.2166 8.6387 24.2363 4.83096 23.7235 3.00401Z" fill="white"/>
<path d="M9.85742 5.11914V12.1192L16.0902 8.61918L9.85742 5.11914Z" fill="#5A48C3"/>
<path d="M35.044 15.331C34.5706 15.0233 34.2353 14.5426 34.038 13.8695C33.8408 13.2156 33.7422 12.331 33.7422 11.2541V9.77327C33.7422 8.6771 33.8605 7.79248 34.0775 7.11939C34.3142 6.4463 34.6692 5.96553 35.1426 5.65783C35.6357 5.35014 36.2669 5.19629 37.0558 5.19629C37.8251 5.19629 38.4563 5.35014 38.9296 5.65783C39.403 5.96553 39.7383 6.46554 39.9553 7.11939C40.1722 7.77324 40.2906 8.65787 40.2906 9.77327V11.2541C40.2906 12.3502 40.192 13.2156 39.975 13.8887C39.758 14.5426 39.4227 15.0426 38.9494 15.3503C38.476 15.658 37.8251 15.8118 37.0164 15.8118C36.188 15.7926 35.5174 15.6387 35.044 15.331ZM37.7067 13.7156C37.8448 13.3887 37.904 12.831 37.904 12.081V8.88864C37.904 8.15786 37.8448 7.6194 37.7067 7.27324C37.5687 6.92708 37.3517 6.77323 37.0164 6.77323C36.7008 6.77323 36.4641 6.94631 36.3458 7.27324C36.2077 7.6194 36.1485 8.15786 36.1485 8.88864V12.081C36.1485 12.831 36.2077 13.3887 36.3458 13.7156C36.4641 14.0426 36.7008 14.2156 37.0361 14.2156C37.3517 14.2156 37.5687 14.0618 37.7067 13.7156Z" fill="white"/>
<path d="M71.456 11.2737V11.7929C71.456 12.4468 71.4757 12.9468 71.5151 13.2737C71.5546 13.6006 71.6335 13.8506 71.7716 13.9852C71.8899 14.1391 72.0871 14.216 72.3633 14.216C72.7183 14.216 72.955 14.0814 73.0931 13.8122C73.2311 13.5429 73.2903 13.1006 73.31 12.466L75.3416 12.5814C75.3613 12.6775 75.3613 12.7929 75.3613 12.9468C75.3613 13.8891 75.1049 14.6006 74.5724 15.0622C74.0398 15.5237 73.2903 15.7545 72.3238 15.7545C71.1601 15.7545 70.3514 15.3891 69.878 14.6776C69.4047 13.966 69.168 12.8698 69.168 11.3698V9.58134C69.168 8.04285 69.4047 6.92746 69.8978 6.21591C70.3909 5.50436 71.2193 5.1582 72.383 5.1582C73.1917 5.1582 73.8229 5.31205 74.2568 5.60052C74.6907 5.88898 74.9866 6.35053 75.1641 6.94669C75.3416 7.56208 75.4205 8.40824 75.4205 9.48518V11.2352H71.456V11.2737ZM71.7518 6.96592C71.6335 7.11977 71.5546 7.35054 71.5151 7.67746C71.4757 8.00439 71.456 8.5044 71.456 9.17748V9.90826H73.1917V9.17748C73.1917 8.52363 73.172 8.02362 73.1325 7.67746C73.0931 7.33131 72.9944 7.10054 72.8761 6.96592C72.7578 6.8313 72.5605 6.75438 72.3238 6.75438C72.0477 6.73515 71.8702 6.81207 71.7518 6.96592Z" fill="white"/>
<path d="M29.284 11.0815L26.6016 1.60059H28.9487L29.8955 5.8891C30.1322 6.94681 30.3097 7.85066 30.428 8.60067H30.4872C30.5661 8.06221 30.7436 7.17758 31.0198 5.90833L32.006 1.60059H34.3531L31.6312 11.0815V15.62H29.3038V11.0815H29.284Z" fill="white"/>
<path d="M47.9221 5.38867V15.6388H46.068L45.8707 14.3888H45.8116C45.3185 15.3311 44.5492 15.8119 43.5433 15.8119C42.853 15.8119 42.3401 15.5811 42.0048 15.1388C41.6695 14.6965 41.5117 14.0042 41.5117 13.0426V5.38867H43.8786V12.908C43.8786 13.3695 43.9378 13.6965 44.0364 13.8888C44.135 14.0811 44.3125 14.1772 44.5492 14.1772C44.7465 14.1772 44.9437 14.1196 45.141 13.9849C45.3382 13.8695 45.4763 13.7157 45.5552 13.5234V5.38867H47.9221Z" fill="white"/>
<path d="M60.0549 5.38867V15.6388H58.2008L58.0036 14.3888H57.9444C57.4513 15.3311 56.682 15.8119 55.6761 15.8119C54.9858 15.8119 54.4729 15.5811 54.1376 15.1388C53.8023 14.6965 53.6445 14.0042 53.6445 13.0426V5.38867H56.0114V12.908C56.0114 13.3695 56.0706 13.6965 56.1692 13.8888C56.2678 14.0811 56.4454 14.1772 56.682 14.1772C56.8793 14.1772 57.0765 14.1196 57.2738 13.9849C57.471 13.8695 57.6091 13.7157 57.688 13.5234V5.38867H60.0549Z" fill="white"/>
<path d="M54.3536 3.46599H52.0065V15.62H49.6987V3.46599H47.3516V1.60059H54.3536V3.46599Z" fill="white"/>
<path d="M67.8849 7.02344C67.7469 6.36958 67.5102 5.90804 67.1946 5.61957C66.879 5.33111 66.4254 5.17726 65.8731 5.17726C65.4392 5.17726 65.025 5.29265 64.6502 5.54265C64.2754 5.77342 63.9796 6.10035 63.7823 6.48497H63.7626V1.08105H61.4746V15.6197H63.4273L63.664 14.6581H63.7232C63.9007 15.0043 64.1768 15.2735 64.5516 15.4851C64.9263 15.6774 65.3208 15.7928 65.7745 15.7928C66.5832 15.7928 67.1552 15.4274 67.5299 14.7158C67.9047 14.0043 68.1019 12.8697 68.1019 11.3504V9.73501C68.0822 8.56192 68.023 7.65806 67.8849 7.02344ZM65.7153 11.1966C65.7153 11.9466 65.6758 12.5235 65.6167 12.9466C65.5575 13.3697 65.4392 13.6774 65.3011 13.8504C65.1433 14.0235 64.9461 14.1197 64.7094 14.1197C64.5121 14.1197 64.3346 14.0812 64.1768 13.9851C64.019 13.8889 63.881 13.7543 63.7823 13.5812V7.77345C63.8612 7.50421 63.9993 7.27344 64.1965 7.08113C64.3938 6.90805 64.6107 6.8119 64.8277 6.8119C65.0644 6.8119 65.2616 6.90805 65.38 7.08113C65.5181 7.27344 65.597 7.58114 65.6561 8.00422C65.7153 8.44653 65.735 9.06192 65.735 9.8504V11.1966H65.7153Z" fill="white"/>
</svg>
